<?xml version="1.0" encoding="UTF-8"?>
<svg xmlns="http://www.w3.org/2000/svg" xmlns:xlink="http://www.w3.org/1999/xlink" width="300pt" height="300pt" viewBox="0 0 300 300" version="1.1">
<g id="surface647">
<path style=" stroke:none;fill-rule:nonzero;fill:rgb(22%,59.6%,14.9%);fill-opacity:1;" d="M 214.394531 45.960938 L 201.203125 59.132812 L 198.148438 62.140625 L 196.039062 64.167969 L 194.375 65.714844 L 192.984375 66.957031 L 191.773438 67.980469 L 190.703125 68.828125 L 189.734375 69.535156 L 188.847656 70.113281 L 188.03125 70.582031 L 187.265625 70.941406 L 186.550781 71.203125 L 185.867188 71.359375 L 185.207031 71.417969 L 184.558594 71.371094 L 183.90625 71.199219 L 183.21875 70.882812 L 182.441406 70.367188 L 181.414062 69.5 L 177.269531 65.40625 L 173.175781 61.261719 L 172.308594 60.234375 L 171.792969 59.457031 L 171.480469 58.769531 L 171.308594 58.117188 L 171.257812 57.46875 L 171.316406 56.8125 L 171.476562 56.128906 L 171.734375 55.410156 L 172.097656 54.648438 L 172.5625 53.832031 L 173.144531 52.945312 L 173.847656 51.976562 L 174.699219 50.902344 L 175.71875 49.695312 L 176.960938 48.300781 L 178.507812 46.640625 L 180.535156 44.53125 L 183.542969 41.472656 L 196.714844 28.285156 L 209.90625 15.113281 L 212.960938 12.105469 L 215.070312 10.078125 L 216.734375 8.53125 L 218.125 7.289062 L 219.335938 6.265625 L 220.40625 5.417969 L 221.375 4.710938 L 222.261719 4.132812 L 223.078125 3.664062 L 223.84375 3.304688 L 224.558594 3.042969 L 225.242188 2.886719 L 225.902344 2.828125 L 226.550781 2.875 L 227.203125 3.046875 L 227.890625 3.363281 L 228.667969 3.878906 L 229.695312 4.746094 L 233.839844 8.839844 L 237.929688 12.984375 L 238.800781 14.011719 L 239.316406 14.789062 L 239.628906 15.476562 L 239.800781 16.128906 L 239.851562 16.777344 L 239.792969 17.433594 L 239.632812 18.117188 L 239.371094 18.835938 L 239.011719 19.597656 L 238.546875 20.414062 L 237.964844 21.300781 L 237.261719 22.269531 L 236.410156 23.34375 L 235.390625 24.550781 L 234.148438 25.945312 L 232.601562 27.605469 L 230.574219 29.71875 L 227.566406 32.773438 Z M 214.394531 45.960938 "/>
<path style=" stroke:none;fill-rule:nonzero;fill:rgb(22%,59.6%,14.9%);fill-opacity:1;" d="M 186.109375 38.890625 L 177.863281 30.660156 L 175.945312 28.789062 L 174.609375 27.539062 L 173.546875 26.59375 L 172.648438 25.847656 L 171.859375 25.242188 L 171.148438 24.753906 L 170.492188 24.363281 L 169.882812 24.058594 L 169.304688 23.832031 L 168.753906 23.679688 L 168.21875 23.605469 L 167.691406 23.601562 L 167.167969 23.679688 L 166.632812 23.839844 L 166.070312 24.101562 L 165.453125 24.488281 L 164.722656 25.050781 L 163.726562 25.949219 L 159.59375 30.050781 L 155.488281 34.1875 L 154.59375 35.183594 L 154.027344 35.914062 L 153.640625 36.53125 L 153.382812 37.09375 L 153.21875 37.628906 L 153.144531 38.152344 L 153.144531 38.675781 L 153.222656 39.210938 L 153.371094 39.765625 L 153.597656 40.339844 L 153.902344 40.953125 L 154.292969 41.605469 L 154.785156 42.320312 L 155.386719 43.109375 L 156.136719 44.007812 L 157.078125 45.070312 L 158.332031 46.402344 L 160.203125 48.324219 L 168.429688 56.566406 L 176.675781 64.796875 L 178.597656 66.667969 L 179.929688 67.921875 L 180.992188 68.863281 L 181.890625 69.613281 L 182.679688 70.214844 L 183.394531 70.707031 L 184.046875 71.097656 L 184.660156 71.402344 L 185.234375 71.628906 L 185.789062 71.777344 L 186.324219 71.855469 L 186.847656 71.855469 L 187.371094 71.78125 L 187.90625 71.617188 L 188.46875 71.359375 L 189.085938 70.972656 L 189.816406 70.40625 L 190.8125 69.511719 L 194.949219 65.40625 L 199.050781 61.273438 L 199.949219 60.277344 L 200.511719 59.546875 L 200.898438 58.929688 L 201.160156 58.367188 L 201.320312 57.832031 L 201.398438 57.308594 L 201.394531 56.78125 L 201.320312 56.246094 L 201.167969 55.695312 L 200.941406 55.117188 L 200.636719 54.507812 L 200.246094 53.851562 L 199.757812 53.140625 L 199.152344 52.351562 L 198.40625 51.453125 L 197.460938 50.390625 L 196.210938 49.054688 L 194.339844 47.136719 Z M 186.109375 38.890625 "/>
<path style=" stroke:none;fill-rule:nonzero;fill:rgb(58.4%,34.5%,69.8%);fill-opacity:1;" d="M 214.394531 145.960938 L 201.203125 159.132812 L 198.148438 162.140625 L 196.039062 164.167969 L 194.375 165.714844 L 192.984375 166.957031 L 191.773438 167.980469 L 190.703125 168.828125 L 189.734375 169.535156 L 188.847656 170.113281 L 188.03125 170.582031 L 187.265625 170.941406 L 186.550781 171.203125 L 185.867188 171.359375 L 185.207031 171.417969 L 184.558594 171.371094 L 183.90625 171.199219 L 183.21875 170.882812 L 182.441406 170.367188 L 181.414062 169.5 L 177.269531 165.40625 L 173.175781 161.261719 L 172.308594 160.234375 L 171.792969 159.457031 L 171.480469 158.769531 L 171.308594 158.117188 L 171.257812 157.46875 L 171.316406 156.8125 L 171.476562 156.128906 L 171.734375 155.410156 L 172.097656 154.648438 L 172.5625 153.832031 L 173.144531 152.945312 L 173.847656 151.976562 L 174.699219 150.902344 L 175.71875 149.695312 L 176.960938 148.300781 L 178.507812 146.640625 L 180.535156 144.53125 L 183.542969 141.472656 L 196.714844 128.285156 L 209.90625 115.113281 L 212.960938 112.105469 L 215.070312 110.078125 L 216.734375 108.53125 L 218.125 107.289062 L 219.335938 106.265625 L 220.40625 105.417969 L 221.375 104.710938 L 222.261719 104.132812 L 223.078125 103.664062 L 223.84375 103.304688 L 224.558594 103.042969 L 225.242188 102.886719 L 225.902344 102.828125 L 226.550781 102.875 L 227.203125 103.046875 L 227.890625 103.363281 L 228.667969 103.878906 L 229.695312 104.746094 L 233.839844 108.839844 L 237.929688 112.984375 L 238.800781 114.011719 L 239.316406 114.789062 L 239.628906 115.476562 L 239.800781 116.128906 L 239.851562 116.777344 L 239.792969 117.433594 L 239.632812 118.117188 L 239.371094 118.835938 L 239.011719 119.597656 L 238.546875 120.414062 L 237.964844 121.300781 L 237.261719 122.269531 L 236.410156 123.34375 L 235.390625 124.550781 L 234.148438 125.945312 L 232.601562 127.605469 L 230.574219 129.71875 L 227.566406 132.773438 Z M 214.394531 145.960938 "/>
<path style=" stroke:none;fill-rule:nonzero;fill:rgb(58.4%,34.5%,69.8%);fill-opacity:1;" d="M 186.109375 138.890625 L 177.863281 130.660156 L 175.945312 128.789062 L 174.609375 127.539062 L 173.546875 126.59375 L 172.648438 125.847656 L 171.859375 125.242188 L 171.148438 124.753906 L 170.492188 124.363281 L 169.882812 124.058594 L 169.304688 123.832031 L 168.753906 123.679688 L 168.21875 123.605469 L 167.691406 123.601562 L 167.167969 123.679688 L 166.632812 123.839844 L 166.070312 124.101562 L 165.453125 124.488281 L 164.722656 125.050781 L 163.726562 125.949219 L 159.59375 130.050781 L 155.488281 134.1875 L 154.59375 135.183594 L 154.027344 135.914062 L 153.640625 136.53125 L 153.382812 137.09375 L 153.21875 137.628906 L 153.144531 138.152344 L 153.144531 138.675781 L 153.222656 139.210938 L 153.371094 139.765625 L 153.597656 140.339844 L 153.902344 140.953125 L 154.292969 141.605469 L 154.785156 142.320312 L 155.386719 143.109375 L 156.136719 144.007812 L 157.078125 145.070312 L 158.332031 146.402344 L 160.203125 148.324219 L 168.429688 156.566406 L 176.675781 164.796875 L 178.597656 166.667969 L 179.929688 167.921875 L 180.992188 168.863281 L 181.890625 169.613281 L 182.679688 170.214844 L 183.394531 170.707031 L 184.046875 171.097656 L 184.660156 171.402344 L 185.234375 171.628906 L 185.789062 171.777344 L 186.324219 171.855469 L 186.847656 171.855469 L 187.371094 171.78125 L 187.90625 171.617188 L 188.46875 171.359375 L 189.085938 170.972656 L 189.816406 170.40625 L 190.8125 169.511719 L 194.949219 165.40625 L 199.050781 161.273438 L 199.949219 160.277344 L 200.511719 159.546875 L 200.898438 158.929688 L 201.160156 158.367188 L 201.320312 157.832031 L 201.398438 157.308594 L 201.394531 156.78125 L 201.320312 156.246094 L 201.167969 155.695312 L 200.941406 155.117188 L 200.636719 154.507812 L 200.246094 153.851562 L 199.757812 153.140625 L 199.152344 152.351562 L 198.40625 151.453125 L 197.460938 150.390625 L 196.210938 149.054688 L 194.339844 147.136719 Z M 186.109375 138.890625 "/>
<path style=" stroke:none;fill-rule:nonzero;fill:rgb(79.6%,23.5%,20%);fill-opacity:1;" d="M 205.554688 254.800781 L 188.246094 272.09375 L 184.242188 276.046875 L 181.488281 278.71875 L 179.324219 280.769531 L 177.519531 282.421875 L 175.960938 283.792969 L 174.585938 284.941406 L 173.359375 285.910156 L 172.242188 286.71875 L 171.222656 287.386719 L 170.285156 287.921875 L 169.414062 288.335938 L 168.601562 288.625 L 167.832031 288.796875 L 167.089844 288.839844 L 166.363281 288.746094 L 165.617188 288.488281 L 164.796875 288.015625 L 163.746094 287.167969 L 159.59375 283.085938 L 155.507812 278.933594 L 154.664062 277.882812 L 154.191406 277.0625 L 153.933594 276.316406 L 153.839844 275.585938 L 153.882812 274.847656 L 154.050781 274.078125 L 154.34375 273.261719 L 154.753906 272.390625 L 155.292969 271.453125 L 155.960938 270.433594 L 156.769531 269.320312 L 157.734375 268.089844 L 158.886719 266.714844 L 160.253906 265.160156 L 161.910156 263.355469 L 163.957031 261.191406 L 166.632812 258.433594 L 170.585938 254.429688 L 187.875 237.125 L 205.183594 219.832031 L 209.1875 215.878906 L 211.945312 213.203125 L 214.109375 211.15625 L 215.914062 209.5 L 217.46875 208.132812 L 218.84375 206.980469 L 220.074219 206.015625 L 221.1875 205.207031 L 222.207031 204.539062 L 223.144531 204.003906 L 224.015625 203.589844 L 224.832031 203.296875 L 225.601562 203.128906 L 226.339844 203.085938 L 227.070312 203.179688 L 227.816406 203.4375 L 228.636719 203.910156 L 229.683594 204.753906 L 233.839844 208.839844 L 237.921875 212.992188 L 238.765625 214.042969 L 239.242188 214.863281 L 239.5 215.609375 L 239.59375 216.335938 L 239.550781 217.078125 L 239.378906 217.847656 L 239.089844 218.660156 L 238.675781 219.53125 L 238.140625 220.472656 L 237.472656 221.488281 L 236.664062 222.605469 L 235.695312 223.832031 L 234.546875 225.207031 L 233.175781 226.765625 L 231.523438 228.570312 L 229.472656 230.734375 L 226.800781 233.488281 L 222.847656 237.492188 Z M 205.554688 254.800781 "/>
<path style=" stroke:none;fill-rule:nonzero;fill:rgb(79.6%,23.5%,20%);fill-opacity:1;" d="M 187.875 254.800781 L 170.585938 237.492188 L 166.632812 233.488281 L 163.957031 230.734375 L 161.910156 228.570312 L 160.253906 226.765625 L 158.886719 225.207031 L 157.734375 223.832031 L 156.769531 222.605469 L 155.960938 221.488281 L 155.292969 220.472656 L 154.753906 219.53125 L 154.34375 218.660156 L 154.050781 217.847656 L 153.882812 217.078125 L 153.839844 216.335938 L 153.933594 215.609375 L 154.191406 214.863281 L 154.664062 214.042969 L 155.507812 212.992188 L 159.59375 208.839844 L 163.746094 204.753906 L 164.796875 203.910156 L 165.617188 203.4375 L 166.363281 203.179688 L 167.089844 203.085938 L 167.832031 203.128906 L 168.601562 203.296875 L 169.414062 203.589844 L 170.285156 204.003906 L 171.222656 204.539062 L 172.242188 205.207031 L 173.359375 206.015625 L 174.585938 206.980469 L 175.960938 208.132812 L 177.519531 209.5 L 179.324219 211.15625 L 181.488281 213.203125 L 184.242188 215.878906 L 188.246094 219.832031 L 205.554688 237.121094 L 222.847656 254.429688 L 226.800781 258.433594 L 229.472656 261.191406 L 231.523438 263.355469 L 233.175781 265.160156 L 234.546875 266.714844 L 235.695312 268.089844 L 236.664062 269.320312 L 237.472656 270.433594 L 238.140625 271.453125 L 238.675781 272.390625 L 239.089844 273.261719 L 239.378906 274.078125 L 239.550781 274.847656 L 239.59375 275.585938 L 239.5 276.316406 L 239.242188 277.0625 L 238.765625 277.882812 L 237.921875 278.933594 L 233.839844 283.085938 L 229.683594 287.167969 L 228.636719 288.015625 L 227.816406 288.488281 L 227.070312 288.746094 L 226.339844 288.839844 L 225.601562 288.796875 L 224.832031 288.625 L 224.015625 288.335938 L 223.144531 287.921875 L 222.207031 287.386719 L 221.1875 286.71875 L 220.074219 285.910156 L 218.84375 284.941406 L 217.46875 283.792969 L 215.914062 282.421875 L 214.109375 280.769531 L 211.945312 278.71875 L 209.1875 276.046875 L 205.183594 272.09375 L 187.878906 254.800781 Z M 187.875 254.800781 "/>
</g>
</svg>
