<?xml version="1.0" encoding="UTF-8"?>
<svg xmlns="http://www.w3.org/2000/svg" xmlns:xlink="http://www.w3.org/1999/xlink" width="300pt" height="300pt" viewBox="0 0 300 300" version="1.1">
<g id="surface641">
<path style=" stroke:none;fill-rule:nonzero;fill:rgb(22%,59.6%,14.9%);fill-opacity:1;" d="M 139.394531 45.960938 L 126.203125 59.132812 L 123.148438 62.140625 L 121.039062 64.167969 L 119.375 65.714844 L 117.984375 66.957031 L 116.773438 67.980469 L 115.703125 68.828125 L 114.734375 69.535156 L 113.847656 70.113281 L 113.03125 70.582031 L 112.265625 70.941406 L 111.550781 71.203125 L 110.867188 71.359375 L 110.207031 71.417969 L 109.558594 71.371094 L 108.90625 71.199219 L 108.21875 70.882812 L 107.441406 70.367188 L 106.414062 69.5 L 102.269531 65.40625 L 98.175781 61.261719 L 97.308594 60.234375 L 96.792969 59.457031 L 96.480469 58.769531 L 96.308594 58.117188 L 96.257812 57.46875 L 96.316406 56.8125 L 96.476562 56.128906 L 96.734375 55.410156 L 97.097656 54.648438 L 97.5625 53.832031 L 98.144531 52.945312 L 98.847656 51.976562 L 99.699219 50.902344 L 100.71875 49.695312 L 101.960938 48.300781 L 103.507812 46.640625 L 105.535156 44.53125 L 108.542969 41.472656 L 121.714844 28.285156 L 134.90625 15.113281 L 137.960938 12.105469 L 140.070312 10.078125 L 141.734375 8.53125 L 143.125 7.289062 L 144.335938 6.265625 L 145.40625 5.417969 L 146.375 4.710938 L 147.261719 4.132812 L 148.078125 3.664062 L 148.84375 3.304688 L 149.558594 3.042969 L 150.242188 2.886719 L 150.902344 2.828125 L 151.550781 2.875 L 152.203125 3.046875 L 152.890625 3.363281 L 153.667969 3.878906 L 154.695312 4.746094 L 158.839844 8.839844 L 162.929688 12.984375 L 163.800781 14.011719 L 164.316406 14.789062 L 164.628906 15.476562 L 164.800781 16.128906 L 164.851562 16.777344 L 164.792969 17.433594 L 164.632812 18.117188 L 164.371094 18.835938 L 164.011719 19.597656 L 163.546875 20.414062 L 162.964844 21.300781 L 162.261719 22.269531 L 161.410156 23.34375 L 160.390625 24.550781 L 159.148438 25.945312 L 157.601562 27.605469 L 155.574219 29.71875 L 152.566406 32.773438 Z M 139.394531 45.960938 "/>
<path style=" stroke:none;fill-rule:nonzero;fill:rgb(22%,59.6%,14.9%);fill-opacity:1;" d="M 111.109375 38.890625 L 102.863281 30.660156 L 100.945312 28.789062 L 99.609375 27.539062 L 98.546875 26.59375 L 97.648438 25.847656 L 96.859375 25.242188 L 96.148438 24.753906 L 95.492188 24.363281 L 94.882812 24.058594 L 94.304688 23.832031 L 93.753906 23.679688 L 93.21875 23.605469 L 92.691406 23.601562 L 92.167969 23.679688 L 91.632812 23.839844 L 91.070312 24.101562 L 90.453125 24.488281 L 89.722656 25.050781 L 88.726562 25.949219 L 84.59375 30.050781 L 80.488281 34.1875 L 79.59375 35.183594 L 79.027344 35.914062 L 78.640625 36.53125 L 78.382812 37.09375 L 78.21875 37.628906 L 78.144531 38.152344 L 78.144531 38.675781 L 78.222656 39.210938 L 78.371094 39.765625 L 78.597656 40.339844 L 78.902344 40.953125 L 79.292969 41.605469 L 79.785156 42.320312 L 80.386719 43.109375 L 81.136719 44.007812 L 82.078125 45.070312 L 83.332031 46.402344 L 85.203125 48.324219 L 93.429688 56.566406 L 101.675781 64.796875 L 103.597656 66.667969 L 104.929688 67.921875 L 105.992188 68.863281 L 106.890625 69.613281 L 107.679688 70.214844 L 108.394531 70.707031 L 109.046875 71.097656 L 109.660156 71.402344 L 110.234375 71.628906 L 110.789062 71.777344 L 111.324219 71.855469 L 111.847656 71.855469 L 112.371094 71.78125 L 112.90625 71.617188 L 113.46875 71.359375 L 114.085938 70.972656 L 114.816406 70.40625 L 115.8125 69.511719 L 119.949219 65.40625 L 124.050781 61.273438 L 124.949219 60.277344 L 125.511719 59.546875 L 125.898438 58.929688 L 126.160156 58.367188 L 126.320312 57.832031 L 126.398438 57.308594 L 126.394531 56.78125 L 126.320312 56.246094 L 126.167969 55.695312 L 125.941406 55.117188 L 125.636719 54.507812 L 125.246094 53.851562 L 124.757812 53.140625 L 124.152344 52.351562 L 123.40625 51.453125 L 122.460938 50.390625 L 121.210938 49.054688 L 119.339844 47.136719 Z M 111.109375 38.890625 "/>
<path style=" stroke:none;fill-rule:nonzero;fill:rgb(58.4%,34.5%,69.8%);fill-opacity:1;" d="M 139.394531 145.960938 L 126.203125 159.132812 L 123.148438 162.140625 L 121.039062 164.167969 L 119.375 165.714844 L 117.984375 166.957031 L 116.773438 167.980469 L 115.703125 168.828125 L 114.734375 169.535156 L 113.847656 170.113281 L 113.03125 170.582031 L 112.265625 170.941406 L 111.550781 171.203125 L 110.867188 171.359375 L 110.207031 171.417969 L 109.558594 171.371094 L 108.90625 171.199219 L 108.21875 170.882812 L 107.441406 170.367188 L 106.414062 169.5 L 102.269531 165.40625 L 98.175781 161.261719 L 97.308594 160.234375 L 96.792969 159.457031 L 96.480469 158.769531 L 96.308594 158.117188 L 96.257812 157.46875 L 96.316406 156.8125 L 96.476562 156.128906 L 96.734375 155.410156 L 97.097656 154.648438 L 97.5625 153.832031 L 98.144531 152.945312 L 98.847656 151.976562 L 99.699219 150.902344 L 100.71875 149.695312 L 101.960938 148.300781 L 103.507812 146.640625 L 105.535156 144.53125 L 108.542969 141.472656 L 121.714844 128.285156 L 134.90625 115.113281 L 137.960938 112.105469 L 140.070312 110.078125 L 141.734375 108.53125 L 143.125 107.289062 L 144.335938 106.265625 L 145.40625 105.417969 L 146.375 104.710938 L 147.261719 104.132812 L 148.078125 103.664062 L 148.84375 103.304688 L 149.558594 103.042969 L 150.242188 102.886719 L 150.902344 102.828125 L 151.550781 102.875 L 152.203125 103.046875 L 152.890625 103.363281 L 153.667969 103.878906 L 154.695312 104.746094 L 158.839844 108.839844 L 162.929688 112.984375 L 163.800781 114.011719 L 164.316406 114.789062 L 164.628906 115.476562 L 164.800781 116.128906 L 164.851562 116.777344 L 164.792969 117.433594 L 164.632812 118.117188 L 164.371094 118.835938 L 164.011719 119.597656 L 163.546875 120.414062 L 162.964844 121.300781 L 162.261719 122.269531 L 161.410156 123.34375 L 160.390625 124.550781 L 159.148438 125.945312 L 157.601562 127.605469 L 155.574219 129.71875 L 152.566406 132.773438 Z M 139.394531 145.960938 "/>
<path style=" stroke:none;fill-rule:nonzero;fill:rgb(58.4%,34.5%,69.8%);fill-opacity:1;" d="M 111.109375 138.890625 L 102.863281 130.660156 L 100.945312 128.789062 L 99.609375 127.539062 L 98.546875 126.59375 L 97.648438 125.847656 L 96.859375 125.242188 L 96.148438 124.753906 L 95.492188 124.363281 L 94.882812 124.058594 L 94.304688 123.832031 L 93.753906 123.679688 L 93.21875 123.605469 L 92.691406 123.601562 L 92.167969 123.679688 L 91.632812 123.839844 L 91.070312 124.101562 L 90.453125 124.488281 L 89.722656 125.050781 L 88.726562 125.949219 L 84.59375 130.050781 L 80.488281 134.1875 L 79.59375 135.183594 L 79.027344 135.914062 L 78.640625 136.53125 L 78.382812 137.09375 L 78.21875 137.628906 L 78.144531 138.152344 L 78.144531 138.675781 L 78.222656 139.210938 L 78.371094 139.765625 L 78.597656 140.339844 L 78.902344 140.953125 L 79.292969 141.605469 L 79.785156 142.320312 L 80.386719 143.109375 L 81.136719 144.007812 L 82.078125 145.070312 L 83.332031 146.402344 L 85.203125 148.324219 L 93.429688 156.566406 L 101.675781 164.796875 L 103.597656 166.667969 L 104.929688 167.921875 L 105.992188 168.863281 L 106.890625 169.613281 L 107.679688 170.214844 L 108.394531 170.707031 L 109.046875 171.097656 L 109.660156 171.402344 L 110.234375 171.628906 L 110.789062 171.777344 L 111.324219 171.855469 L 111.847656 171.855469 L 112.371094 171.78125 L 112.90625 171.617188 L 113.46875 171.359375 L 114.085938 170.972656 L 114.816406 170.40625 L 115.8125 169.511719 L 119.949219 165.40625 L 124.050781 161.273438 L 124.949219 160.277344 L 125.511719 159.546875 L 125.898438 158.929688 L 126.160156 158.367188 L 126.320312 157.832031 L 126.398438 157.308594 L 126.394531 156.78125 L 126.320312 156.246094 L 126.167969 155.695312 L 125.941406 155.117188 L 125.636719 154.507812 L 125.246094 153.851562 L 124.757812 153.140625 L 124.152344 152.351562 L 123.40625 151.453125 L 122.460938 150.390625 L 121.210938 149.054688 L 119.339844 147.136719 Z M 111.109375 138.890625 "/>
<path style=" stroke:none;fill-rule:nonzero;fill:rgb(79.6%,23.5%,20%);fill-opacity:1;" d="M 130.554688 254.800781 L 113.246094 272.09375 L 109.242188 276.046875 L 106.488281 278.71875 L 104.324219 280.769531 L 102.519531 282.421875 L 100.960938 283.792969 L 99.585938 284.941406 L 98.359375 285.910156 L 97.242188 286.71875 L 96.222656 287.386719 L 95.285156 287.921875 L 94.414062 288.335938 L 93.601562 288.625 L 92.832031 288.796875 L 92.089844 288.839844 L 91.363281 288.746094 L 90.617188 288.488281 L 89.796875 288.015625 L 88.746094 287.167969 L 84.59375 283.085938 L 80.507812 278.933594 L 79.664062 277.882812 L 79.191406 277.0625 L 78.933594 276.316406 L 78.839844 275.585938 L 78.882812 274.847656 L 79.050781 274.078125 L 79.34375 273.261719 L 79.753906 272.390625 L 80.292969 271.453125 L 80.960938 270.433594 L 81.769531 269.320312 L 82.734375 268.089844 L 83.886719 266.714844 L 85.253906 265.160156 L 86.910156 263.355469 L 88.957031 261.191406 L 91.632812 258.433594 L 95.585938 254.429688 L 112.875 237.125 L 130.183594 219.832031 L 134.1875 215.878906 L 136.945312 213.203125 L 139.109375 211.15625 L 140.914062 209.5 L 142.46875 208.132812 L 143.84375 206.980469 L 145.074219 206.015625 L 146.1875 205.207031 L 147.207031 204.539062 L 148.144531 204.003906 L 149.015625 203.589844 L 149.832031 203.296875 L 150.601562 203.128906 L 151.339844 203.085938 L 152.070312 203.179688 L 152.816406 203.4375 L 153.636719 203.910156 L 154.683594 204.753906 L 158.839844 208.839844 L 162.921875 212.992188 L 163.765625 214.042969 L 164.242188 214.863281 L 164.5 215.609375 L 164.59375 216.335938 L 164.550781 217.078125 L 164.378906 217.847656 L 164.089844 218.660156 L 163.675781 219.53125 L 163.140625 220.472656 L 162.472656 221.488281 L 161.664062 222.605469 L 160.695312 223.832031 L 159.546875 225.207031 L 158.175781 226.765625 L 156.523438 228.570312 L 154.472656 230.734375 L 151.800781 233.488281 L 147.847656 237.492188 Z M 130.554688 254.800781 "/>
<path style=" stroke:none;fill-rule:nonzero;fill:rgb(79.6%,23.5%,20%);fill-opacity:1;" d="M 112.875 254.800781 L 95.585938 237.492188 L 91.632812 233.488281 L 88.957031 230.734375 L 86.910156 228.570312 L 85.253906 226.765625 L 83.886719 225.207031 L 82.734375 223.832031 L 81.769531 222.605469 L 80.960938 221.488281 L 80.292969 220.472656 L 79.753906 219.53125 L 79.34375 218.660156 L 79.050781 217.847656 L 78.882812 217.078125 L 78.839844 216.335938 L 78.933594 215.609375 L 79.191406 214.863281 L 79.664062 214.042969 L 80.507812 212.992188 L 84.59375 208.839844 L 88.746094 204.753906 L 89.796875 203.910156 L 90.617188 203.4375 L 91.363281 203.179688 L 92.089844 203.085938 L 92.832031 203.128906 L 93.601562 203.296875 L 94.414062 203.589844 L 95.285156 204.003906 L 96.222656 204.539062 L 97.242188 205.207031 L 98.359375 206.015625 L 99.585938 206.980469 L 100.960938 208.132812 L 102.519531 209.5 L 104.324219 211.15625 L 106.488281 213.203125 L 109.242188 215.878906 L 113.246094 219.832031 L 130.554688 237.121094 L 147.847656 254.429688 L 151.800781 258.433594 L 154.472656 261.191406 L 156.523438 263.355469 L 158.175781 265.160156 L 159.546875 266.714844 L 160.695312 268.089844 L 161.664062 269.320312 L 162.472656 270.433594 L 163.140625 271.453125 L 163.675781 272.390625 L 164.089844 273.261719 L 164.378906 274.078125 L 164.550781 274.847656 L 164.59375 275.585938 L 164.5 276.316406 L 164.242188 277.0625 L 163.765625 277.882812 L 162.921875 278.933594 L 158.839844 283.085938 L 154.683594 287.167969 L 153.636719 288.015625 L 152.816406 288.488281 L 152.070312 288.746094 L 151.339844 288.839844 L 150.601562 288.796875 L 149.832031 288.625 L 149.015625 288.335938 L 148.144531 287.921875 L 147.207031 287.386719 L 146.1875 286.71875 L 145.074219 285.910156 L 143.84375 284.941406 L 142.46875 283.792969 L 140.914062 282.421875 L 139.109375 280.769531 L 136.945312 278.71875 L 134.1875 276.046875 L 130.183594 272.09375 L 112.878906 254.800781 Z M 112.875 254.800781 "/>
</g>
</svg>
