<?xml version="1.0" encoding="UTF-8"?>
<svg xmlns="http://www.w3.org/2000/svg" xmlns:xlink="http://www.w3.org/1999/xlink" width="400pt" height="400pt" viewBox="0 0 400 400" version="1.1">
<g id="surface545">
<path style=" stroke:none;fill-rule:nonzero;fill:rgb(22%,59.6%,14.9%);fill-opacity:1;" d="M 189.394531 95.960938 L 176.203125 109.132812 L 173.148438 112.140625 L 171.039062 114.167969 L 169.375 115.714844 L 167.984375 116.957031 L 166.773438 117.980469 L 165.703125 118.828125 L 164.734375 119.535156 L 163.847656 120.113281 L 163.03125 120.582031 L 162.265625 120.941406 L 161.550781 121.203125 L 160.867188 121.359375 L 160.207031 121.417969 L 159.558594 121.371094 L 158.90625 121.199219 L 158.21875 120.882812 L 157.441406 120.367188 L 156.414062 119.5 L 152.269531 115.40625 L 148.175781 111.261719 L 147.308594 110.234375 L 146.792969 109.457031 L 146.480469 108.769531 L 146.308594 108.117188 L 146.257812 107.46875 L 146.316406 106.8125 L 146.476562 106.128906 L 146.734375 105.410156 L 147.097656 104.648438 L 147.5625 103.832031 L 148.144531 102.945312 L 148.847656 101.976562 L 149.699219 100.902344 L 150.71875 99.695312 L 151.960938 98.300781 L 153.507812 96.640625 L 155.535156 94.53125 L 158.542969 91.472656 L 171.714844 78.285156 L 184.90625 65.113281 L 187.960938 62.105469 L 190.070312 60.078125 L 191.734375 58.53125 L 193.125 57.289062 L 194.335938 56.265625 L 195.40625 55.417969 L 196.375 54.710938 L 197.261719 54.132812 L 198.078125 53.664062 L 198.84375 53.304688 L 199.558594 53.042969 L 200.242188 52.886719 L 200.902344 52.828125 L 201.550781 52.875 L 202.203125 53.046875 L 202.890625 53.363281 L 203.667969 53.878906 L 204.695312 54.746094 L 208.839844 58.839844 L 212.929688 62.984375 L 213.800781 64.011719 L 214.316406 64.789062 L 214.628906 65.476562 L 214.800781 66.128906 L 214.851562 66.777344 L 214.792969 67.433594 L 214.632812 68.117188 L 214.371094 68.835938 L 214.011719 69.597656 L 213.546875 70.414062 L 212.964844 71.300781 L 212.261719 72.269531 L 211.410156 73.34375 L 210.390625 74.550781 L 209.148438 75.945312 L 207.601562 77.605469 L 205.574219 79.71875 L 202.566406 82.773438 Z M 189.394531 95.960938 "/>
<path style=" stroke:none;fill-rule:nonzero;fill:rgb(22%,59.6%,14.9%);fill-opacity:1;" d="M 161.109375 88.890625 L 152.863281 80.660156 L 150.945312 78.789062 L 149.609375 77.539062 L 148.546875 76.59375 L 147.648438 75.847656 L 146.859375 75.242188 L 146.148438 74.753906 L 145.492188 74.363281 L 144.882812 74.058594 L 144.304688 73.832031 L 143.753906 73.679688 L 143.21875 73.605469 L 142.691406 73.601562 L 142.167969 73.679688 L 141.632812 73.839844 L 141.070312 74.101562 L 140.453125 74.488281 L 139.722656 75.050781 L 138.726562 75.949219 L 134.59375 80.050781 L 130.488281 84.1875 L 129.59375 85.183594 L 129.027344 85.914062 L 128.640625 86.53125 L 128.382812 87.09375 L 128.21875 87.628906 L 128.144531 88.152344 L 128.144531 88.675781 L 128.222656 89.210938 L 128.371094 89.765625 L 128.597656 90.339844 L 128.902344 90.953125 L 129.292969 91.605469 L 129.785156 92.320312 L 130.386719 93.109375 L 131.136719 94.007812 L 132.078125 95.070312 L 133.332031 96.402344 L 135.203125 98.324219 L 143.429688 106.566406 L 151.675781 114.796875 L 153.597656 116.667969 L 154.929688 117.921875 L 155.992188 118.863281 L 156.890625 119.613281 L 157.679688 120.214844 L 158.394531 120.707031 L 159.046875 121.097656 L 159.660156 121.402344 L 160.234375 121.628906 L 160.789062 121.777344 L 161.324219 121.855469 L 161.847656 121.855469 L 162.371094 121.78125 L 162.90625 121.617188 L 163.46875 121.359375 L 164.085938 120.972656 L 164.816406 120.40625 L 165.8125 119.511719 L 169.949219 115.40625 L 174.050781 111.273438 L 174.949219 110.277344 L 175.511719 109.546875 L 175.898438 108.929688 L 176.160156 108.367188 L 176.320312 107.832031 L 176.398438 107.308594 L 176.394531 106.78125 L 176.320312 106.246094 L 176.167969 105.695312 L 175.941406 105.117188 L 175.636719 104.507812 L 175.246094 103.851562 L 174.757812 103.140625 L 174.152344 102.351562 L 173.40625 101.453125 L 172.460938 100.390625 L 171.210938 99.054688 L 169.339844 97.136719 Z M 161.109375 88.890625 "/>
<path style=" stroke:none;fill-rule:nonzero;fill:rgb(58.4%,34.5%,69.8%);fill-opacity:1;" d="M 189.394531 195.960938 L 176.203125 209.132812 L 173.148438 212.140625 L 171.039062 214.167969 L 169.375 215.714844 L 167.984375 216.957031 L 166.773438 217.980469 L 165.703125 218.828125 L 164.734375 219.535156 L 163.847656 220.113281 L 163.03125 220.582031 L 162.265625 220.941406 L 161.550781 221.203125 L 160.867188 221.359375 L 160.207031 221.417969 L 159.558594 221.371094 L 158.90625 221.199219 L 158.21875 220.882812 L 157.441406 220.367188 L 156.414062 219.5 L 152.269531 215.40625 L 148.175781 211.261719 L 147.308594 210.234375 L 146.792969 209.457031 L 146.480469 208.769531 L 146.308594 208.117188 L 146.257812 207.46875 L 146.316406 206.8125 L 146.476562 206.128906 L 146.734375 205.410156 L 147.097656 204.648438 L 147.5625 203.832031 L 148.144531 202.945312 L 148.847656 201.976562 L 149.699219 200.902344 L 150.71875 199.695312 L 151.960938 198.300781 L 153.507812 196.640625 L 155.535156 194.53125 L 158.542969 191.472656 L 171.714844 178.285156 L 184.90625 165.113281 L 187.960938 162.105469 L 190.070312 160.078125 L 191.734375 158.53125 L 193.125 157.289062 L 194.335938 156.265625 L 195.40625 155.417969 L 196.375 154.710938 L 197.261719 154.132812 L 198.078125 153.664062 L 198.84375 153.304688 L 199.558594 153.042969 L 200.242188 152.886719 L 200.902344 152.828125 L 201.550781 152.875 L 202.203125 153.046875 L 202.890625 153.363281 L 203.667969 153.878906 L 204.695312 154.746094 L 208.839844 158.839844 L 212.929688 162.984375 L 213.800781 164.011719 L 214.316406 164.789062 L 214.628906 165.476562 L 214.800781 166.128906 L 214.851562 166.777344 L 214.792969 167.433594 L 214.632812 168.117188 L 214.371094 168.835938 L 214.011719 169.597656 L 213.546875 170.414062 L 212.964844 171.300781 L 212.261719 172.269531 L 211.410156 173.34375 L 210.390625 174.550781 L 209.148438 175.945312 L 207.601562 177.605469 L 205.574219 179.71875 L 202.566406 182.773438 Z M 189.394531 195.960938 "/>
<path style=" stroke:none;fill-rule:nonzero;fill:rgb(58.4%,34.5%,69.8%);fill-opacity:1;" d="M 161.109375 188.890625 L 152.863281 180.660156 L 150.945312 178.789062 L 149.609375 177.539062 L 148.546875 176.59375 L 147.648438 175.847656 L 146.859375 175.242188 L 146.148438 174.753906 L 145.492188 174.363281 L 144.882812 174.058594 L 144.304688 173.832031 L 143.753906 173.679688 L 143.21875 173.605469 L 142.691406 173.601562 L 142.167969 173.679688 L 141.632812 173.839844 L 141.070312 174.101562 L 140.453125 174.488281 L 139.722656 175.050781 L 138.726562 175.949219 L 134.59375 180.050781 L 130.488281 184.1875 L 129.59375 185.183594 L 129.027344 185.914062 L 128.640625 186.53125 L 128.382812 187.09375 L 128.21875 187.628906 L 128.144531 188.152344 L 128.144531 188.675781 L 128.222656 189.210938 L 128.371094 189.765625 L 128.597656 190.339844 L 128.902344 190.953125 L 129.292969 191.605469 L 129.785156 192.320312 L 130.386719 193.109375 L 131.136719 194.007812 L 132.078125 195.070312 L 133.332031 196.402344 L 135.203125 198.324219 L 143.429688 206.566406 L 151.675781 214.796875 L 153.597656 216.667969 L 154.929688 217.921875 L 155.992188 218.863281 L 156.890625 219.613281 L 157.679688 220.214844 L 158.394531 220.707031 L 159.046875 221.097656 L 159.660156 221.402344 L 160.234375 221.628906 L 160.789062 221.777344 L 161.324219 221.855469 L 161.847656 221.855469 L 162.371094 221.78125 L 162.90625 221.617188 L 163.46875 221.359375 L 164.085938 220.972656 L 164.816406 220.40625 L 165.8125 219.511719 L 169.949219 215.40625 L 174.050781 211.273438 L 174.949219 210.277344 L 175.511719 209.546875 L 175.898438 208.929688 L 176.160156 208.367188 L 176.320312 207.832031 L 176.398438 207.308594 L 176.394531 206.78125 L 176.320312 206.246094 L 176.167969 205.695312 L 175.941406 205.117188 L 175.636719 204.507812 L 175.246094 203.851562 L 174.757812 203.140625 L 174.152344 202.351562 L 173.40625 201.453125 L 172.460938 200.390625 L 171.210938 199.054688 L 169.339844 197.136719 Z M 161.109375 188.890625 "/>
<path style=" stroke:none;fill-rule:nonzero;fill:rgb(79.6%,23.5%,20%);fill-opacity:1;" d="M 180.554688 304.800781 L 163.246094 322.09375 L 159.242188 326.046875 L 156.488281 328.71875 L 154.324219 330.769531 L 152.519531 332.421875 L 150.960938 333.792969 L 149.585938 334.941406 L 148.359375 335.910156 L 147.242188 336.71875 L 146.222656 337.386719 L 145.285156 337.921875 L 144.414062 338.335938 L 143.601562 338.625 L 142.832031 338.796875 L 142.089844 338.839844 L 141.363281 338.746094 L 140.617188 338.488281 L 139.796875 338.015625 L 138.746094 337.167969 L 134.59375 333.085938 L 130.507812 328.933594 L 129.664062 327.882812 L 129.191406 327.0625 L 128.933594 326.316406 L 128.839844 325.585938 L 128.882812 324.847656 L 129.050781 324.078125 L 129.34375 323.261719 L 129.753906 322.390625 L 130.292969 321.453125 L 130.960938 320.433594 L 131.769531 319.320312 L 132.734375 318.089844 L 133.886719 316.714844 L 135.253906 315.160156 L 136.910156 313.355469 L 138.957031 311.191406 L 141.632812 308.433594 L 145.585938 304.429688 L 162.875 287.125 L 180.183594 269.832031 L 184.1875 265.878906 L 186.945312 263.203125 L 189.109375 261.15625 L 190.914062 259.5 L 192.46875 258.132812 L 193.84375 256.980469 L 195.074219 256.015625 L 196.1875 255.207031 L 197.207031 254.539062 L 198.144531 254.003906 L 199.015625 253.589844 L 199.832031 253.296875 L 200.601562 253.128906 L 201.339844 253.085938 L 202.070312 253.179688 L 202.816406 253.4375 L 203.636719 253.910156 L 204.683594 254.753906 L 208.839844 258.839844 L 212.921875 262.992188 L 213.765625 264.042969 L 214.242188 264.863281 L 214.5 265.609375 L 214.59375 266.335938 L 214.550781 267.078125 L 214.378906 267.847656 L 214.089844 268.660156 L 213.675781 269.53125 L 213.140625 270.472656 L 212.472656 271.488281 L 211.664062 272.605469 L 210.695312 273.832031 L 209.546875 275.207031 L 208.175781 276.765625 L 206.523438 278.570312 L 204.472656 280.734375 L 201.800781 283.488281 L 197.847656 287.492188 Z M 180.554688 304.800781 "/>
<path style=" stroke:none;fill-rule:nonzero;fill:rgb(79.6%,23.5%,20%);fill-opacity:1;" d="M 162.875 304.800781 L 145.585938 287.492188 L 141.632812 283.488281 L 138.957031 280.734375 L 136.910156 278.570312 L 135.253906 276.765625 L 133.886719 275.207031 L 132.734375 273.832031 L 131.769531 272.605469 L 130.960938 271.488281 L 130.292969 270.472656 L 129.753906 269.53125 L 129.34375 268.660156 L 129.050781 267.847656 L 128.882812 267.078125 L 128.839844 266.335938 L 128.933594 265.609375 L 129.191406 264.863281 L 129.664062 264.042969 L 130.507812 262.992188 L 134.59375 258.839844 L 138.746094 254.753906 L 139.796875 253.910156 L 140.617188 253.4375 L 141.363281 253.179688 L 142.089844 253.085938 L 142.832031 253.128906 L 143.601562 253.296875 L 144.414062 253.589844 L 145.285156 254.003906 L 146.222656 254.539062 L 147.242188 255.207031 L 148.359375 256.015625 L 149.585938 256.980469 L 150.960938 258.132812 L 152.519531 259.5 L 154.324219 261.15625 L 156.488281 263.203125 L 159.242188 265.878906 L 163.246094 269.832031 L 180.554688 287.121094 L 197.847656 304.429688 L 201.800781 308.433594 L 204.472656 311.191406 L 206.523438 313.355469 L 208.175781 315.160156 L 209.546875 316.714844 L 210.695312 318.089844 L 211.664062 319.320312 L 212.472656 320.433594 L 213.140625 321.453125 L 213.675781 322.390625 L 214.089844 323.261719 L 214.378906 324.078125 L 214.550781 324.847656 L 214.59375 325.585938 L 214.5 326.316406 L 214.242188 327.0625 L 213.765625 327.882812 L 212.921875 328.933594 L 208.839844 333.085938 L 204.683594 337.167969 L 203.636719 338.015625 L 202.816406 338.488281 L 202.070312 338.746094 L 201.339844 338.839844 L 200.601562 338.796875 L 199.832031 338.625 L 199.015625 338.335938 L 198.144531 337.921875 L 197.207031 337.386719 L 196.1875 336.71875 L 195.074219 335.910156 L 193.84375 334.941406 L 192.46875 333.792969 L 190.914062 332.421875 L 189.109375 330.769531 L 186.945312 328.71875 L 184.1875 326.046875 L 180.183594 322.09375 L 162.878906 304.800781 Z M 162.875 304.800781 "/>
</g>
</svg>
